<mxfile host="app.diagrams.net" modified="2021-01-23T03:54:13.981Z" agent="5.0 (Macintosh; Intel Mac OS X 11_1_0) AppleWebKit/537.36 (KHTML, like Gecko) Chrome/87.0.4280.141 Safari/537.36" etag="pVSXNA45PwDtN6pumdFC" version="14.2.7" type="github">
  <diagram id="gXGMGVotOe5PqpmbN5TR" name="Page-1">
    <mxGraphModel dx="1301" dy="1003" grid="1" gridSize="10" guides="1" tooltips="1" connect="1" arrows="1" fold="1" page="1" pageScale="1" pageWidth="850" pageHeight="1100" math="0" shadow="0">
      <root>
        <mxCell id="0" />
        <mxCell id="1" parent="0" />
        <mxCell id="HKB72c0JKg0sZNGKXkK9-3" value="" style="edgeStyle=orthogonalEdgeStyle;rounded=0;orthogonalLoop=1;jettySize=auto;html=1;" edge="1" parent="1" source="HKB72c0JKg0sZNGKXkK9-1" target="HKB72c0JKg0sZNGKXkK9-2">
          <mxGeometry relative="1" as="geometry" />
        </mxCell>
        <mxCell id="HKB72c0JKg0sZNGKXkK9-4" value="auto completes&amp;nbsp;&lt;br&gt;search term" style="edgeLabel;html=1;align=center;verticalAlign=middle;resizable=0;points=[];" vertex="1" connectable="0" parent="HKB72c0JKg0sZNGKXkK9-3">
          <mxGeometry x="-0.6" relative="1" as="geometry">
            <mxPoint y="-24" as="offset" />
          </mxGeometry>
        </mxCell>
        <mxCell id="HKB72c0JKg0sZNGKXkK9-16" value="" style="edgeStyle=orthogonalEdgeStyle;rounded=0;orthogonalLoop=1;jettySize=auto;html=1;" edge="1" parent="1" source="HKB72c0JKg0sZNGKXkK9-1" target="HKB72c0JKg0sZNGKXkK9-15">
          <mxGeometry relative="1" as="geometry" />
        </mxCell>
        <mxCell id="HKB72c0JKg0sZNGKXkK9-24" value="search" style="edgeLabel;html=1;align=center;verticalAlign=middle;resizable=0;points=[];" vertex="1" connectable="0" parent="HKB72c0JKg0sZNGKXkK9-16">
          <mxGeometry x="-0.175" relative="1" as="geometry">
            <mxPoint as="offset" />
          </mxGeometry>
        </mxCell>
        <mxCell id="HKB72c0JKg0sZNGKXkK9-1" value="Search User" style="rounded=1;whiteSpace=wrap;html=1;" vertex="1" parent="1">
          <mxGeometry x="90" y="190" width="120" height="60" as="geometry" />
        </mxCell>
        <mxCell id="HKB72c0JKg0sZNGKXkK9-2" value="&amp;nbsp;Search Term&lt;br&gt;Completion&amp;nbsp;&lt;br&gt;Service" style="rounded=1;whiteSpace=wrap;html=1;" vertex="1" parent="1">
          <mxGeometry x="90" y="50" width="120" height="60" as="geometry" />
        </mxCell>
        <mxCell id="HKB72c0JKg0sZNGKXkK9-10" value="" style="edgeStyle=orthogonalEdgeStyle;rounded=0;orthogonalLoop=1;jettySize=auto;html=1;" edge="1" parent="1" source="HKB72c0JKg0sZNGKXkK9-7" target="HKB72c0JKg0sZNGKXkK9-9">
          <mxGeometry relative="1" as="geometry" />
        </mxCell>
        <mxCell id="HKB72c0JKg0sZNGKXkK9-13" style="edgeStyle=orthogonalEdgeStyle;rounded=0;orthogonalLoop=1;jettySize=auto;html=1;entryX=0;entryY=0.5;entryDx=0;entryDy=0;" edge="1" parent="1" source="HKB72c0JKg0sZNGKXkK9-7" target="HKB72c0JKg0sZNGKXkK9-11">
          <mxGeometry relative="1" as="geometry" />
        </mxCell>
        <mxCell id="HKB72c0JKg0sZNGKXkK9-14" style="edgeStyle=orthogonalEdgeStyle;rounded=0;orthogonalLoop=1;jettySize=auto;html=1;entryX=0;entryY=0.5;entryDx=0;entryDy=0;" edge="1" parent="1" source="HKB72c0JKg0sZNGKXkK9-7" target="HKB72c0JKg0sZNGKXkK9-12">
          <mxGeometry relative="1" as="geometry" />
        </mxCell>
        <mxCell id="HKB72c0JKg0sZNGKXkK9-7" value="SearchBackend" style="rounded=1;whiteSpace=wrap;html=1;" vertex="1" parent="1">
          <mxGeometry x="470" y="190" width="120" height="60" as="geometry" />
        </mxCell>
        <mxCell id="HKB72c0JKg0sZNGKXkK9-9" value="sharded index&lt;br&gt;(Elasticsearch)" style="shape=cylinder;whiteSpace=wrap;html=1;boundedLbl=1;backgroundOutline=1;rounded=1;" vertex="1" parent="1">
          <mxGeometry x="650" y="180" width="90" height="80" as="geometry" />
        </mxCell>
        <mxCell id="HKB72c0JKg0sZNGKXkK9-11" value="sharded index&lt;br&gt;(Elasticsearch)" style="shape=cylinder;whiteSpace=wrap;html=1;boundedLbl=1;backgroundOutline=1;rounded=1;" vertex="1" parent="1">
          <mxGeometry x="650" y="80" width="90" height="80" as="geometry" />
        </mxCell>
        <mxCell id="HKB72c0JKg0sZNGKXkK9-12" value="sharded index&lt;br&gt;(Elasticsearch)" style="shape=cylinder;whiteSpace=wrap;html=1;boundedLbl=1;backgroundOutline=1;rounded=1;" vertex="1" parent="1">
          <mxGeometry x="650" y="280" width="90" height="80" as="geometry" />
        </mxCell>
        <mxCell id="HKB72c0JKg0sZNGKXkK9-17" style="edgeStyle=orthogonalEdgeStyle;rounded=0;orthogonalLoop=1;jettySize=auto;html=1;entryX=0;entryY=0.5;entryDx=0;entryDy=0;" edge="1" parent="1" source="HKB72c0JKg0sZNGKXkK9-15" target="HKB72c0JKg0sZNGKXkK9-7">
          <mxGeometry relative="1" as="geometry" />
        </mxCell>
        <mxCell id="HKB72c0JKg0sZNGKXkK9-19" value="" style="edgeStyle=orthogonalEdgeStyle;rounded=0;orthogonalLoop=1;jettySize=auto;html=1;" edge="1" parent="1" source="HKB72c0JKg0sZNGKXkK9-15" target="HKB72c0JKg0sZNGKXkK9-18">
          <mxGeometry relative="1" as="geometry" />
        </mxCell>
        <mxCell id="HKB72c0JKg0sZNGKXkK9-21" value="" style="edgeStyle=orthogonalEdgeStyle;rounded=0;orthogonalLoop=1;jettySize=auto;html=1;" edge="1" parent="1" source="HKB72c0JKg0sZNGKXkK9-15" target="HKB72c0JKg0sZNGKXkK9-20">
          <mxGeometry relative="1" as="geometry" />
        </mxCell>
        <mxCell id="HKB72c0JKg0sZNGKXkK9-15" value="Search&lt;br&gt;Aggregator" style="rounded=1;whiteSpace=wrap;html=1;" vertex="1" parent="1">
          <mxGeometry x="290" y="190" width="120" height="60" as="geometry" />
        </mxCell>
        <mxCell id="HKB72c0JKg0sZNGKXkK9-18" value="Navigation&lt;br&gt;Generation" style="rounded=1;whiteSpace=wrap;html=1;" vertex="1" parent="1">
          <mxGeometry x="290" y="50" width="120" height="60" as="geometry" />
        </mxCell>
        <mxCell id="HKB72c0JKg0sZNGKXkK9-20" value="Ads" style="rounded=1;whiteSpace=wrap;html=1;" vertex="1" parent="1">
          <mxGeometry x="290" y="330" width="120" height="60" as="geometry" />
        </mxCell>
        <mxCell id="HKB72c0JKg0sZNGKXkK9-30" value="" style="edgeStyle=orthogonalEdgeStyle;rounded=0;orthogonalLoop=1;jettySize=auto;html=1;" edge="1" parent="1" source="HKB72c0JKg0sZNGKXkK9-22" target="HKB72c0JKg0sZNGKXkK9-29">
          <mxGeometry relative="1" as="geometry" />
        </mxCell>
        <mxCell id="HKB72c0JKg0sZNGKXkK9-22" value="Catalog" style="rounded=1;whiteSpace=wrap;html=1;" vertex="1" parent="1">
          <mxGeometry x="90" y="450" width="120" height="60" as="geometry" />
        </mxCell>
        <mxCell id="HKB72c0JKg0sZNGKXkK9-32" value="" style="edgeStyle=orthogonalEdgeStyle;rounded=0;orthogonalLoop=1;jettySize=auto;html=1;" edge="1" parent="1" source="HKB72c0JKg0sZNGKXkK9-29" target="HKB72c0JKg0sZNGKXkK9-31">
          <mxGeometry relative="1" as="geometry" />
        </mxCell>
        <mxCell id="HKB72c0JKg0sZNGKXkK9-29" value="Catalog&lt;br&gt;DB" style="shape=cylinder;whiteSpace=wrap;html=1;boundedLbl=1;backgroundOutline=1;rounded=1;" vertex="1" parent="1">
          <mxGeometry x="320" y="440" width="60" height="80" as="geometry" />
        </mxCell>
        <mxCell id="HKB72c0JKg0sZNGKXkK9-34" value="" style="edgeStyle=orthogonalEdgeStyle;rounded=0;orthogonalLoop=1;jettySize=auto;html=1;" edge="1" parent="1" source="HKB72c0JKg0sZNGKXkK9-31" target="HKB72c0JKg0sZNGKXkK9-33">
          <mxGeometry relative="1" as="geometry" />
        </mxCell>
        <mxCell id="HKB72c0JKg0sZNGKXkK9-31" value="Publishing&lt;br&gt;(Kafka)" style="whiteSpace=wrap;html=1;rounded=1;" vertex="1" parent="1">
          <mxGeometry x="470" y="450" width="120" height="60" as="geometry" />
        </mxCell>
        <mxCell id="HKB72c0JKg0sZNGKXkK9-36" value="" style="edgeStyle=orthogonalEdgeStyle;rounded=0;orthogonalLoop=1;jettySize=auto;html=1;" edge="1" parent="1" source="HKB72c0JKg0sZNGKXkK9-33" target="HKB72c0JKg0sZNGKXkK9-35">
          <mxGeometry relative="1" as="geometry" />
        </mxCell>
        <mxCell id="HKB72c0JKg0sZNGKXkK9-33" value="Data Lake&lt;br&gt;(HDFS / ...)" style="whiteSpace=wrap;html=1;rounded=1;" vertex="1" parent="1">
          <mxGeometry x="670" y="450" width="120" height="60" as="geometry" />
        </mxCell>
        <mxCell id="HKB72c0JKg0sZNGKXkK9-41" style="edgeStyle=orthogonalEdgeStyle;rounded=0;orthogonalLoop=1;jettySize=auto;html=1;entryX=0.5;entryY=1;entryDx=0;entryDy=0;" edge="1" parent="1" source="HKB72c0JKg0sZNGKXkK9-35" target="HKB72c0JKg0sZNGKXkK9-37">
          <mxGeometry relative="1" as="geometry" />
        </mxCell>
        <mxCell id="HKB72c0JKg0sZNGKXkK9-35" value="Batch Job&lt;br&gt;ML model" style="whiteSpace=wrap;html=1;rounded=1;" vertex="1" parent="1">
          <mxGeometry x="850" y="450" width="120" height="60" as="geometry" />
        </mxCell>
        <mxCell id="HKB72c0JKg0sZNGKXkK9-38" style="edgeStyle=orthogonalEdgeStyle;rounded=0;orthogonalLoop=1;jettySize=auto;html=1;entryX=1;entryY=0.5;entryDx=0;entryDy=0;" edge="1" parent="1" source="HKB72c0JKg0sZNGKXkK9-37" target="HKB72c0JKg0sZNGKXkK9-11">
          <mxGeometry relative="1" as="geometry" />
        </mxCell>
        <mxCell id="HKB72c0JKg0sZNGKXkK9-39" style="edgeStyle=orthogonalEdgeStyle;rounded=0;orthogonalLoop=1;jettySize=auto;html=1;entryX=1;entryY=0.5;entryDx=0;entryDy=0;" edge="1" parent="1" source="HKB72c0JKg0sZNGKXkK9-37" target="HKB72c0JKg0sZNGKXkK9-9">
          <mxGeometry relative="1" as="geometry" />
        </mxCell>
        <mxCell id="HKB72c0JKg0sZNGKXkK9-40" style="edgeStyle=orthogonalEdgeStyle;rounded=0;orthogonalLoop=1;jettySize=auto;html=1;entryX=1;entryY=0.7;entryDx=0;entryDy=0;" edge="1" parent="1" source="HKB72c0JKg0sZNGKXkK9-37" target="HKB72c0JKg0sZNGKXkK9-12">
          <mxGeometry relative="1" as="geometry" />
        </mxCell>
        <mxCell id="HKB72c0JKg0sZNGKXkK9-37" value="Publisher&lt;br&gt;" style="whiteSpace=wrap;html=1;rounded=1;" vertex="1" parent="1">
          <mxGeometry x="850" y="190" width="120" height="60" as="geometry" />
        </mxCell>
      </root>
    </mxGraphModel>
  </diagram>
</mxfile>
